<?xml version="1.0"?>
<svg version="1.1" xmlns="http://www.w3.org/2000/svg" width="235" height="70" style=""><path fill="#3de048" d="M15.9130859375,51.6181640625q0-0.099609375,0.06640625-0.70556640625t0.17431640625-1.4775390625t0.24072265625-1.8759765625t0.232421875-1.90087890625t0.17431640625-1.5771484375t0.07470703125-0.9130859375q-0.1328125-0.06640625-0.32373046875-0.19091796875t-0.19091796875-0.29052734375q0-0.232421875,0.22412109375-0.37353515625t0.39013671875-0.20751953125q0.06640625-0.8466796875,0.166015625-2.357421875t0.30712890625-3.26220703125t0.5810546875-3.552734375t0.98779296875-3.2705078125t1.4775390625-2.39892578125t2.125-0.9296875t2.091796875,0.796875t1.35302734375,2.0751953125t0.796875,2.8388671875t0.4150390625,3.1044921875t0.17431640625,2.888671875t0.06640625,2.158203125q0.033203125,0.5146484375,0.2490234375,0.68896484375t0.47314453125,0.24072265625t0.46484375,0.1494140625t0.20751953125,0.4150390625q0,0.3818359375-0.46484375,0.53125t-0.73046875,0.1826171875q0.166015625,2.0751953125,0.45654296875,4.083984375t0.77197265625,4.05078125q0.06640625,0.3818359375,0.1826171875,0.77197265625t0.1162109375,0.75537109375q0,0.265625-0.1826171875,0.43994140625t-0.47314453125,0.27392578125t-0.5810546875,0.1328125t-0.48974609375,0.033203125q-0.7470703125,0-1.26171875-0.2822265625t-0.6806640625-1.0791015625q-0.4482421875-2.1416015625-0.8798828125-4.4990234375q-0.365234375-2.0419921875-0.365234375-3.9677734375q0-0.298828125,0.0166015625-0.59765625q-1.39453125,0-2.8056640625,0.06640625t-2.7060546875,0.498046875q-0.033203125,0.4482421875-0.166015625,1.693359375t-0.298828125,2.6728515625t-0.34033203125,2.73095703125t-0.20751953125,1.85107421875q-0.033203125,0.232421875-0.34033203125,0.43994140625t-0.6640625,0.22412109375t-0.630859375-0.22412109375t-0.27392578125-0.85498046875z M19.017578125,41.5576171875q1.294921875-0.298828125,2.59814453125-0.3486328125t2.63134765625-0.1162109375q-0.06640625-0.4150390625-0.033203125-0.85498046875t0.033203125-0.88818359375q0-0.9794921875-0.0498046875-2.2744140625t-0.1494140625-2.623046875t-0.25732421875-2.61474609375t-0.35693359375-2.291015625t-0.42333984375-1.60205078125t-0.48974609375-0.59765625q-0.5146484375,0.033203125-0.97119140625,0.88818359375t-0.830078125,2.1748046875t-0.6806640625,2.955078125t-0.5146484375,3.19580078125t-0.34033203125,2.9052734375t-0.166015625,2.091796875z M32.641982421875,41.1591796875q0-0.6806640625,0.24072265625-1.1455078125t1.02099609375-0.46484375q0.298828125,0,0.7470703125,0.09130859375t0.5146484375,0.45654296875q0.166015625,0.9794921875,0.1826171875,2.125t0.1162109375,2.158203125q0.3818359375-0.7470703125,0.9794921875-1.6103515625t1.361328125-1.59375t1.66015625-1.2119140625t1.826171875-0.4814453125q0.06640625,0,0.2490234375,0.0498046875t0.34033203125,0.14111328125t0.19091796875,0.20751953125t-0.1826171875,0.2158203125q-0.06640625,0.19921875-0.2822265625,0.24072265625t-0.3818359375,0.04150390625q-0.099609375,0-0.3154296875-0.0830078125q-1.228515625,0.6474609375-2.091796875,1.759765625t-1.4111328125,2.46533203125t-0.796875,2.85546875t-0.2490234375,2.93017578125q0,0.7138671875-0.32373046875,0.86328125t-1.03759765625,0.1494140625q-0.3818359375,0-0.80517578125-0.0830078125t-0.58935546875-0.53125q-0.298828125-0.9462890625-0.48974609375-2.1748046875t-0.29052734375-2.53173828125t-0.14111328125-2.56494140625t-0.04150390625-2.2744140625z M44.44021484375,45.8076171875q0-1.12890625,0.30712890625-2.1748046875t0.92138671875-1.86767578125t1.53564453125-1.3115234375t2.13330078125-0.48974609375q0.7470703125,0,1.65185546875,0.22412109375t1.70166015625,0.6640625t1.328125,1.12060546875t0.53125,1.560546875q0,0.4150390625-0.14111328125,0.630859375t-0.57275390625,0.2158203125l-0.1826171875-0.033203125q0.4814453125,1.294921875,0.830078125,2.65625t0.6806640625,2.72265625q0.1328125,0.265625,0.19921875,0.47314453125t0.06640625,0.40673828125q0,0.265625-0.1494140625,0.43994140625t-0.39013671875,0.25732421875t-0.498046875,0.1162109375t-0.45654296875,0.033203125q-0.7138671875,0-1.07080078125-0.2490234375t-0.5146484375-0.6806640625t-0.19091796875-0.97119140625t-0.1328125-1.08740234375q-0.19921875,0.6474609375-0.52294921875,1.26171875t-0.763671875,1.10400390625t-1.03759765625,0.7802734375t-1.3447265625,0.29052734375q-1.095703125,0-1.8427734375-0.630859375t-1.20361328125-1.55224609375t-0.6640625-1.96728515625t-0.20751953125-1.9423828125z M46.79763671875,45.5751953125q0,0.6142578125,0.0830078125,1.294921875t0.27392578125,1.3447265625t0.48974609375,1.25341796875t0.7470703125,1.03759765625q0.8134765625-0.8798828125,1.20361328125-2.1416015625t0.697265625-2.43212890625t0.697265625-2.0087890625t1.20361328125-0.83837890625q0.5146484375,0,0.86328125,0.1826171875q-0.166015625-0.4150390625-0.5478515625-0.80517578125t-0.85498046875-0.7138671875t-0.9794921875-0.53125t-0.95458984375-0.20751953125q-0.1328125,0-0.30712890625,0.04150390625t-0.27392578125,0.00830078125q-0.6806640625,0.19921875-1.12060546875,0.68896484375t-0.7138671875,1.15380859375t-0.39013671875,1.361328125t-0.1162109375,1.3115234375z M58.147626953125,39.6318359375q0-0.1328125,0.15771484375-0.24072265625t0.35693359375-0.15771484375t0.40673828125-0.06640625t0.30712890625-0.0166015625q0.7470703125,0,1.2783203125,0.6640625t0.92138671875,1.70166015625t0.6640625,2.291015625t0.52294921875,2.49853515625t0.48974609375,2.28271484375t0.53955078125,1.60205078125q0.5146484375-1.0126953125,0.93798828125-2.4404296875t0.7802734375-2.955078125t0.630859375-3.01318359375t0.43994140625-2.59814453125q0.06640625-0.298828125,0.4150390625-0.37353515625t0.5810546875-0.07470703125q0.3818359375,0,0.6640625,0.10791015625t0.2822265625,0.47314453125q0,0.6142578125-0.1494140625,1.66845703125t-0.40673828125,2.36572265625t-0.59765625,2.689453125t-0.73046875,2.61474609375t-0.8134765625,2.19140625t-0.83837890625,1.35302734375q-0.19921875,0.232421875-0.62255859375,0.32373046875t-0.70556640625,0.09130859375q-0.9794921875,0-1.626953125-0.5146484375l0,0.033203125q-1.0126953125-0.9462890625-1.494140625-2.3076171875t-0.697265625-2.8388671875t-0.39013671875-2.9384765625t-0.58935546875-2.65625q-0.06640625-0.1328125-0.166015625-0.39013671875t-0.232421875-0.5146484375t-0.22412109375-0.48974609375t-0.09130859375-0.365234375z M71.24078125,45.4091796875q0-1.52734375,0.35693359375-2.99658203125t0.60595703125-2.93017578125q0.06640625-0.3818359375,0.52294921875-0.47314453125t0.77197265625-0.09130859375q0.5478515625,0,0.8798828125,0.166015625q0.1328125,0.06640625,0.2490234375,0.1494140625t0.1162109375,0.2158203125q0,1.427734375-0.34033203125,2.7890625t-0.34033203125,2.888671875q0,0.5146484375,0.07470703125,0.97119140625t0.14111328125,0.90478515625l0.099609375,0.4814453125q0,0.1328125,0.0166015625,0.232421875t0.0498046875,0.232421875q0,0.298828125-0.42333984375,0.40673828125t-0.73876953125,0.10791015625q-0.4814453125,0-0.88818359375-0.19091796875t-0.63916015625-0.65576171875l-0.232421875-0.4814453125q-0.19921875-0.3818359375-0.19921875-0.85498046875t-0.0830078125-0.87158203125z M72.30328125,35.4150390625l0-0.3154296875q0-0.7802734375,0.39013671875-1.39453125t1.17041015625-0.6142578125q0.099609375,0,0.19091796875,0.0166015625t0.19091796875,0.0166015625q0.19921875,0.033203125,0.52294921875,0.15771484375t0.32373046875,0.39013671875l0,0.033203125q-0.06640625,0.1328125-0.0830078125,0.27392578125t-0.0830078125,0.24072265625l0.033203125-0.033203125q-0.19921875,0.5146484375-0.32373046875,0.830078125t-0.27392578125,0.50634765625t-0.37353515625,0.27392578125t-0.63916015625,0.0830078125q-0.06640625,0-0.232421875-0.0166015625t-0.35693359375-0.06640625t-0.32373046875-0.1328125t-0.1328125-0.2490234375z M78.506787109375,45.890625l0-0.4814453125q0-0.59765625,0.033203125-1.12890625q0.033203125-0.7470703125,0.033203125-1.228515625q0-0.265625,0.033203125-0.60595703125t0.166015625-0.53955078125q0.166015625-0.166015625,0.39013671875-0.34033203125t0.48974609375-0.17431640625q0.8466796875,0,1.328125,0.19091796875t0.5146484375,0.78857421875l0.06640625,0.5146484375q0.298828125-0.7138671875,0.796875-1.76806640625t1.15380859375-2.0087890625t1.4775390625-1.626953125t1.73486328125-0.67236328125q0.8466796875,0,1.39453125,0.796875t0.87158203125,2.03369140625t0.45654296875,2.755859375t0.1826171875,2.97998046875t0.06640625,2.66455078125t0.1162109375,1.81787109375q0.06640625,0.5146484375,0.22412109375,1.08740234375t0.15771484375,1.05419921875q0,0.1328125-0.19091796875,0.25732421875t-0.40673828125,0.20751953125t-0.43994140625,0.1328125t-0.32373046875,0.0498046875q-0.6474609375,0-0.92138671875-0.97119140625t-0.34033203125-2.43212890625t-0.06640625-3.16259765625t-0.1162109375-3.16259765625t-0.47314453125-2.43212890625t-1.13720703125-1.00439453125q-0.7138671875,0-1.4775390625,0.92138671875t-1.3115234375,2.44873046875q-0.53125,1.52734375-0.73046875,3.4697265625q-0.06640625,0.6142578125-0.06640625,1.228515625q0,1.3447265625,0.2822265625,2.689453125q0.033203125,0.232421875-0.19091796875,0.3486328125t-0.55615234375,0.1826171875t-0.67236328125,0.0830078125t-0.52294921875,0.0166015625q-0.6474609375,0-1.03759765625-0.45654296875t-0.60595703125-1.17041015625t-0.29052734375-1.60205078125t-0.09130859375-1.75146484375z M93.59212890625,45.6083984375q0-1.294921875,0.27392578125-2.34912109375t0.87158203125-1.78466796875t1.56884765625-1.13720703125t2.36572265625-0.40673828125q0.7802734375,0,1.59375,0.20751953125t1.39453125,0.77197265625q0-0.33203125,0.06640625-1.36962890625t0.166015625-2.41552734375t0.20751953125-2.888671875t0.19091796875-2.8056640625t0.1494140625-2.1748046875t0.099609375-0.99609375q0.166015625-0.4814453125,0.6142578125-0.57275390625t0.8466796875-0.09130859375q1.0458984375,0,1.28662109375,0.33203125t0.24072265625,1.328125q0,3.6357421875-0.32373046875,7.23828125t-0.32373046875,7.23828125q0,2.3408203125,0.09130859375,4.70654296875t0.65576171875,4.65673828125l0.1826171875,0.166015625l0.099609375,0.298828125l-0.2490234375,0.3818359375q-0.630859375,0.3984375-1.4609375,0.3984375l-0.06640625,0q-0.8466796875,0-1.560546875-0.3984375q-0.265625-0.166015625-0.43994140625-0.98779296875t-0.27392578125-1.8095703125t-0.1494140625-1.90087890625t-0.0830078125-1.294921875q-0.5810546875,1.328125-1.58544921875,2.28271484375t-2.53173828125,0.95458984375q-1.1953125,0-1.958984375-0.5146484375t-1.18701171875-1.3115234375t-0.59765625-1.78466796875t-0.17431640625-1.96728515625z M95.60091796875,45.7080078125q0,0.3818359375,0.09130859375,1.12890625t0.29052734375,1.494140625t0.55615234375,1.328125t0.93798828125,0.5810546875q0.7802734375-0.3818359375,1.4111328125-1.27001953125t1.08740234375-1.958984375t0.7138671875-2.1416015625t0.25732421875-1.85107421875q0-0.9794921875-0.7138671875-1.626953125t-1.7099609375-0.6474609375q-0.298828125,0-0.60595703125,0.1162109375t-0.57275390625,0.265625q-0.6142578125,0.5810546875-0.95458984375,1.05419921875t-0.5146484375,0.9794921875t-0.22412109375,1.12060546875t-0.0498046875,1.427734375z M115.7774609375,40.2626953125q0-0.9794921875,0.10791015625-2.3740234375t0.3984375-2.9052734375t0.7802734375-3.0048828125t1.25341796875-2.6396484375t1.826171875-1.8095703125q0.8798828125-0.5478515625,2.025390625-0.5478515625q0.232421875,0,0.4814453125,0.033203125q2.888671875,0.265625,4.44091796875,1.31982421875t2.26611328125,2.6728515625t0.830078125,3.685546875t0.1162109375,4.35791015625q0,1.8427734375-0.34033203125,4.00927734375t-1.20361328125,4.04248046875t-2.38232421875,3.12939453125t-3.85986328125,1.25341796875q-1.427734375,0-2.49853515625-0.52294921875t-1.81787109375-1.39453125t-1.228515625-2.025390625t-0.73046875-2.390625t-0.35693359375-2.49853515625t-0.10791015625-2.390625z M119.147578125,39.515625q0,0.7138671875,0.0166015625,1.75146484375t0.14111328125,2.18310546875t0.32373046875,2.28271484375t0.58935546875,2.06689453125t0.98779296875,1.52734375t1.4443359375,0.630859375l0.0830078125,0q0.763671875,0,1.361328125-0.5810546875q0.630859375-0.6142578125,1.12060546875-1.4775390625t0.8466796875-1.81787109375t0.63916015625-1.63525390625l-0.06640625,0.1494140625q0.4814453125-1.52734375,0.6474609375-3.12939453125t0.166015625-3.16259765625q0-0.7470703125-0.099609375-1.80126953125t-0.32373046875-2.19970703125t-0.5810546875-2.26611328125t-0.90478515625-1.95068359375t-1.2783203125-1.26171875q-0.53125-0.3154296875-1.1787109375-0.33203125q-0.2490234375,0-0.498046875,0.0498046875q-0.8466796875,0.166015625-1.4443359375,0.830078125t-0.97119140625,1.63525390625t-0.57275390625,2.125t-0.30712890625,2.32421875t-0.12451171875,2.2412109375t-0.0166015625,1.81787109375z M126.6348828125,44.62890625l0-0.033203125l0,0.033203125z M133.75147460937,45.890625l0-0.4814453125q0-0.59765625,0.033203125-1.12890625q0.033203125-0.7470703125,0.033203125-1.228515625q0-0.265625,0.033203125-0.60595703125t0.166015625-0.53955078125q0.166015625-0.166015625,0.39013671875-0.34033203125t0.48974609375-0.17431640625q0.8466796875,0,1.328125,0.19091796875t0.5146484375,0.78857421875l0.06640625,0.5146484375q0.298828125-0.7138671875,0.796875-1.76806640625t1.15380859375-2.0087890625t1.4775390625-1.626953125t1.73486328125-0.67236328125q0.8466796875,0,1.39453125,0.796875t0.87158203125,2.03369140625t0.45654296875,2.755859375t0.1826171875,2.97998046875t0.06640625,2.66455078125t0.1162109375,1.81787109375q0.06640625,0.5146484375,0.22412109375,1.08740234375t0.15771484375,1.05419921875q0,0.1328125-0.19091796875,0.25732421875t-0.40673828125,0.20751953125t-0.43994140625,0.1328125t-0.32373046875,0.0498046875q-0.6474609375,0-0.92138671875-0.97119140625t-0.34033203125-2.43212890625t-0.06640625-3.16259765625t-0.1162109375-3.16259765625t-0.47314453125-2.43212890625t-1.13720703125-1.00439453125q-0.7138671875,0-1.4775390625,0.92138671875t-1.3115234375,2.44873046875q-0.53125,1.52734375-0.73046875,3.4697265625q-0.06640625,0.6142578125-0.06640625,1.228515625q0,1.3447265625,0.2822265625,2.689453125q0.033203125,0.232421875-0.19091796875,0.3486328125t-0.55615234375,0.1826171875t-0.67236328125,0.0830078125t-0.52294921875,0.0166015625q-0.6474609375,0-1.03759765625-0.45654296875t-0.60595703125-1.17041015625t-0.29052734375-1.60205078125t-0.09130859375-1.75146484375z M148.15615234375,35.265625q0-0.232421875,0.498046875-0.3984375t1.12890625-0.27392578125t1.22021484375-0.15771484375t0.80517578125-0.0830078125q0-0.4482421875,0.033203125-0.90478515625t0.1826171875-0.8134765625t0.47314453125-0.57275390625t0.90478515625-0.2158203125q0.4814453125,0,0.73046875,0.1162109375t0.53125,0.4814453125q0.06640625,0.19921875,0.06640625,0.3818359375l0,0.55615234375t-0.033203125,0.57275390625q0.6142578125-0.06640625,1.22021484375-0.15771484375t1.22021484375-0.09130859375q0.4482421875,0,0.6142578125,0.0166015625t0.33203125,0.3984375q0.1328125,0.3818359375-0.32373046875,0.5810546875t-1.095703125,0.298828125t-1.27001953125,0.1494140625t-0.763671875,0.0498046875q-0.19921875,2.85546875-0.40673828125,5.6611328125t-0.20751953125,5.6943359375q0,1.294921875,0.0830078125,2.6728515625t0.46484375,2.6064453125q0.099609375,0.3818359375,0.33203125,0.7138671875t0.232421875,0.7138671875q0,0.232421875-0.1826171875,0.365234375t-0.43994140625,0.22412109375t-0.5146484375,0.10791015625t-0.42333984375,0.0166015625q-1.0458984375,0-1.59375-0.7802734375t-0.78857421875-1.86767578125t-0.25732421875-2.23291015625t-0.0166015625-1.859375q0-1.4609375,0.05810546875-2.98828125t0.14111328125-3.021484375t0.232421875-2.921875t0.3486328125-2.65625q-0.5810546875,0.06640625-1.13720703125,0.1494140625t-1.13720703125,0.0830078125q-0.1328125,0-0.35693359375-0.0166015625t-0.42333984375-0.0830078125t-0.34033203125-0.1826171875t-0.14111328125-0.33203125z M160.85086914062,45.8076171875q0-1.12890625,0.30712890625-2.1748046875t0.92138671875-1.86767578125t1.53564453125-1.3115234375t2.13330078125-0.48974609375q0.7470703125,0,1.65185546875,0.22412109375t1.70166015625,0.6640625t1.328125,1.12060546875t0.53125,1.560546875q0,0.4150390625-0.14111328125,0.630859375t-0.57275390625,0.2158203125l-0.1826171875-0.033203125q0.4814453125,1.294921875,0.830078125,2.65625t0.6806640625,2.72265625q0.1328125,0.265625,0.19921875,0.47314453125t0.06640625,0.40673828125q0,0.265625-0.1494140625,0.43994140625t-0.39013671875,0.25732421875t-0.498046875,0.1162109375t-0.45654296875,0.033203125q-0.7138671875,0-1.07080078125-0.2490234375t-0.5146484375-0.6806640625t-0.19091796875-0.97119140625t-0.1328125-1.08740234375q-0.19921875,0.6474609375-0.52294921875,1.26171875t-0.763671875,1.10400390625t-1.03759765625,0.7802734375t-1.3447265625,0.29052734375q-1.095703125,0-1.8427734375-0.630859375t-1.20361328125-1.55224609375t-0.6640625-1.96728515625t-0.20751953125-1.9423828125z M163.20829101562,45.5751953125q0,0.6142578125,0.0830078125,1.294921875t0.27392578125,1.3447265625t0.48974609375,1.25341796875t0.7470703125,1.03759765625q0.8134765625-0.8798828125,1.20361328125-2.1416015625t0.697265625-2.43212890625t0.697265625-2.0087890625t1.20361328125-0.83837890625q0.5146484375,0,0.86328125,0.1826171875q-0.166015625-0.4150390625-0.5478515625-0.80517578125t-0.85498046875-0.7138671875t-0.9794921875-0.53125t-0.95458984375-0.20751953125q-0.1328125,0-0.30712890625,0.04150390625t-0.27392578125,0.00830078125q-0.6806640625,0.19921875-1.12060546875,0.68896484375t-0.7138671875,1.15380859375t-0.39013671875,1.361328125t-0.1162109375,1.3115234375z M175.2389453125,45.2265625q0-0.9130859375,0.17431640625-1.95068359375t0.59765625-1.90087890625t1.17041015625-1.427734375t1.9091796875-0.564453125q0.7802734375,0,1.5107421875,0.25732421875t1.3779296875,0.70556640625q0.19921875-0.33203125,0.630859375-0.40673828125t0.763671875-0.07470703125q0.1328125,0,0.37353515625,0.0166015625t0.47314453125,0.099609375t0.40673828125,0.19921875t0.20751953125,0.33203125q0.1328125,1.162109375,0.1826171875,2.31591796875t0.1494140625,2.29931640625q0.166015625,2.1416015625,0.5146484375,4.2333984375t0.3486328125,4.2333984375q0,1.0126953125-0.09130859375,2.19140625t-0.4814453125,2.18310546875t-1.13720703125,1.66845703125t-2.0751953125,0.6640625q-1.1953125,0-1.83447265625-0.42333984375t-1.15380859375-1.41943359375q0.033203125-0.33203125,0.42333984375-0.43994140625t0.67236328125-0.10791015625q0.265625,0,0.53955078125,0.0498046875t0.43994140625,0.166015625l0.4150390625,0.265625q0.6142578125-1.26171875,0.7470703125-2.755859375t0.1328125-2.888671875q0-1.162109375-0.1162109375-2.29931640625t-0.232421875-2.28271484375q-1.162109375,2.1083984375-3.5361328125,2.1083984375q-1.095703125,0-1.78466796875-0.46484375t-1.0625-1.1787109375t-0.5146484375-1.6103515625t-0.14111328125-1.79296875z M177.2809375,45.3759765625q0,0.4150390625,0.033203125,1.07080078125t0.17431640625,1.28662109375t0.40673828125,1.08740234375t0.7470703125,0.45654296875q0.9130859375,0,1.4443359375-0.7138671875t0.83837890625-1.70166015625t0.48974609375-2.0419921875t0.46484375-1.73486328125q-0.033203125-0.232421875-0.033203125-0.45654296875l0-0.45654296875q-0.3818359375-0.7138671875-1.1123046875-1.23681640625t-1.5107421875-0.70556640625q-0.099609375-0.0166015625-0.1826171875-0.0166015625q-0.46484375,0-0.763671875,0.5478515625q-0.3818359375,0.6640625-0.59765625,1.58544921875t-0.30712890625,1.81787109375t-0.09130859375,1.2119140625z M189.09577148438,46.123046875q0-0.9462890625,0.24072265625-1.95068359375t0.763671875-1.8095703125t1.31982421875-1.3115234375t1.92578125-0.50634765625q0.8466796875,0,1.78466796875,0.29052734375t1.71826171875,0.830078125t1.27001953125,1.31982421875t0.48974609375,1.7431640625q0,1.162109375-0.42333984375,2.2080078125t-1.18701171875,1.86767578125t-1.78466796875,1.294921875t-2.21630859375,0.47314453125q-0.9794921875,0-1.7099609375-0.35693359375t-1.22021484375-0.95458984375t-0.73046875-1.4111328125t-0.24072265625-1.7265625z M191.53620117188,46.08984375q0,0.298828125,0.09130859375,0.8798828125t0.27392578125,1.13720703125t0.47314453125,0.962890625t0.70556640625,0.37353515625q0.8798828125-0.099609375,1.45263671875-0.57275390625t0.9296875-1.15380859375t0.498046875-1.4775390625t0.14111328125-1.5107421875q0-0.9130859375-0.35693359375-1.52734375t-1.17041015625-0.99609375q0,0.033203125,0.033203125,0.033203125t0.033203125-0.033203125l-0.4150390625-0.099609375q-0.166015625-0.06640625-0.40673828125-0.1494140625t-0.47314453125-0.365234375q-0.6474609375,0.232421875-1.00439453125,0.59765625t-0.53955078125,0.88818359375t-0.22412109375,1.25341796875t-0.04150390625,1.759765625z M201.67427734375,45.6083984375q0-1.294921875,0.27392578125-2.34912109375t0.87158203125-1.78466796875t1.56884765625-1.13720703125t2.36572265625-0.40673828125q0.7802734375,0,1.59375,0.20751953125t1.39453125,0.77197265625q0-0.33203125,0.06640625-1.36962890625t0.166015625-2.41552734375t0.20751953125-2.888671875t0.19091796875-2.8056640625t0.1494140625-2.1748046875t0.099609375-0.99609375q0.166015625-0.4814453125,0.6142578125-0.57275390625t0.8466796875-0.09130859375q1.0458984375,0,1.28662109375,0.33203125t0.24072265625,1.328125q0,3.6357421875-0.32373046875,7.23828125t-0.32373046875,7.23828125q0,2.3408203125,0.09130859375,4.70654296875t0.65576171875,4.65673828125l0.1826171875,0.166015625l0.099609375,0.298828125l-0.2490234375,0.3818359375q-0.630859375,0.3984375-1.4609375,0.3984375l-0.06640625,0q-0.8466796875,0-1.560546875-0.3984375q-0.265625-0.166015625-0.43994140625-0.98779296875t-0.27392578125-1.8095703125t-0.1494140625-1.90087890625t-0.0830078125-1.294921875q-0.5810546875,1.328125-1.58544921875,2.28271484375t-2.53173828125,0.95458984375q-1.1953125,0-1.958984375-0.5146484375t-1.18701171875-1.3115234375t-0.59765625-1.78466796875t-0.17431640625-1.96728515625z M203.68306640625,45.7080078125q0,0.3818359375,0.09130859375,1.12890625t0.29052734375,1.494140625t0.55615234375,1.328125t0.93798828125,0.5810546875q0.7802734375-0.3818359375,1.4111328125-1.27001953125t1.08740234375-1.958984375t0.7138671875-2.1416015625t0.25732421875-1.85107421875q0-0.9794921875-0.7138671875-1.626953125t-1.7099609375-0.6474609375q-0.298828125,0-0.60595703125,0.1162109375t-0.57275390625,0.265625q-0.6142578125,0.5810546875-0.95458984375,1.05419921875t-0.5146484375,0.9794921875t-0.22412109375,1.12060546875t-0.0498046875,1.427734375z M217.39047851563,45.4091796875q0-1.52734375,0.35693359375-2.99658203125t0.60595703125-2.93017578125q0.06640625-0.3818359375,0.52294921875-0.47314453125t0.77197265625-0.09130859375q0.5478515625,0,0.8798828125,0.166015625q0.1328125,0.06640625,0.2490234375,0.1494140625t0.1162109375,0.2158203125q0,1.427734375-0.34033203125,2.7890625t-0.34033203125,2.888671875q0,0.5146484375,0.07470703125,0.97119140625t0.14111328125,0.90478515625l0.099609375,0.4814453125q0,0.1328125,0.0166015625,0.232421875t0.0498046875,0.232421875q0,0.298828125-0.42333984375,0.40673828125t-0.73876953125,0.10791015625q-0.4814453125,0-0.88818359375-0.19091796875t-0.63916015625-0.65576171875l-0.232421875-0.4814453125q-0.19921875-0.3818359375-0.19921875-0.85498046875t-0.0830078125-0.87158203125z M218.45297851563,35.4150390625l0-0.3154296875q0-0.7802734375,0.39013671875-1.39453125t1.17041015625-0.6142578125q0.099609375,0,0.19091796875,0.0166015625t0.19091796875,0.0166015625q0.19921875,0.033203125,0.52294921875,0.15771484375t0.32373046875,0.39013671875l0,0.033203125q-0.06640625,0.1328125-0.0830078125,0.27392578125t-0.0830078125,0.24072265625l0.033203125-0.033203125q-0.19921875,0.5146484375-0.32373046875,0.830078125t-0.27392578125,0.50634765625t-0.37353515625,0.27392578125t-0.63916015625,0.0830078125q-0.06640625,0-0.232421875-0.0166015625t-0.35693359375-0.06640625t-0.32373046875-0.1328125t-0.1328125-0.2490234375z"/><path fill="#" d=""/></svg>
